<?xml version="1.0" standalone="yes"?>
<svg xmlns="http://www.w3.org/2000/svg" width="200" height="200">
<path style="fill:#ffffff; stroke:none;" d="M0 0L0 200L200 200L200 0L0 0z"/>
<path style="fill:#9acde9; stroke:none;" d="M99.6667 51.3333C99.2222 51.7778 100.278 51.7222 100.333 51.6667C100.778 51.2223 99.7222 51.2777 99.6667 51.3333M97 52L98 53L97 52z"/>
<path style="fill:#0261ac; stroke:none;" d="M17 99L17 101C45.8159 114.454 71.8437 134.17 100 149L100 52C91.859 54.5771 84.3685 60.2991 77 64.5756C57.4164 75.9414 37.782 90.0449 17 99z"/>
<path style="fill:#06b2e3; stroke:none;" d="M100 52L100 149C119.406 138.671 137.722 126.322 157 115.77C164.399 111.72 178.058 106.588 182 99C164.246 88.1337 146.002 78.0237 128 67.5756C119.053 62.3829 109.886 55.1296 100 52z"/>
<path style="fill:#9acde9; stroke:none;" d="M95 53L96 54L95 53z"/>
<path style="fill:#06b2e3; stroke:none;" d="M94 54L95 55L94 54z"/>
<path style="fill:#9acde9; stroke:none;" d="M105 54L106 55L105 54M92 55L93 56L92 55M107 55L108 56L107 55M90 56L91 57L90 56z"/>
<path style="fill:#06b2e3; stroke:none;" d="M89 57L90 58L89 57z"/>
<path style="fill:#9acde9; stroke:none;" d="M110 57L111 58L110 57M87 58L88 59L87 58M85 59L86 60L85 59M83 60L84 61L83 60z"/>
<path style="fill:#06b2e3; stroke:none;" d="M82 61L83 62L82 61z"/>
<path style="fill:#9acde9; stroke:none;" d="M117 61L118 62L117 61M80 62L81 63L80 62M119 62L120 63L119 62M78 63L79 64L78 63z"/>
<path style="fill:#06b2e3; stroke:none;" d="M77 64L78 65L77 64z"/>
<path style="fill:#9acde9; stroke:none;" d="M122 64L123 65L122 64M75 65L76 66L75 65M124 65L125 66L124 65M73 66L74 67L73 66M127 67L128 68L127 67z"/>
<path style="fill:#06b2e3; stroke:none;" d="M70 68L71 69L70 68z"/>
<path style="fill:#9acde9; stroke:none;" d="M129 68L130 69L129 68M68 69L69 70L68 69M66 70L67 71L66 70z"/>
<path style="fill:#06b2e3; stroke:none;" d="M65 71L66 72L65 71z"/>
<path style="fill:#9acde9; stroke:none;" d="M134 71L135 72L134 71M63 72L64 73L63 72M136 72L137 73L136 72M61 73L62 74L61 73M138 73L139 74L138 73M59 74L60 75L59 74z"/>
<path style="fill:#06b2e3; stroke:none;" d="M58 75L59 76L58 75z"/>
<path style="fill:#9acde9; stroke:none;" d="M141 75L142 76L141 75M56 76L57 77L56 76M143 76L144 77L143 76M54 77L55 78L54 77M144 77L145 78L144 77M51 79L52 80L51 79M148 79L149 80L148 79M49 80L50 81L49 80M150 80L151 81L150 80M47 81L48 82L47 81M45.6667 82.3333C45.2222 82.7778 46.2778 82.7222 46.3333 82.6667C46.7778 82.2222 45.7222 82.2778 45.6667 82.3333M153 82L154 83L153 82M44 83L45 84L44 83M155 83L156 84L155 83M42 84L43 85L42 84z"/>
<path style="fill:#06b2e3; stroke:none;" d="M41 85L42 86L41 85z"/>
<path style="fill:#9acde9; stroke:none;" d="M158 85L159 86L158 85M39 86L40 87L39 86M37 87L38 88L37 87M35 88L36 89L35 88M34 89L35 90L34 89M165 89L166 90L165 89M32 90L33 91L32 90M167 90L168 91L167 90M30 91L31 92L30 91M28 92L29 93L28 92M170 92L171 93L170 92M27 93L28 94L27 93M172 93L173 94L172 93M25 94L26 95L25 94M174 94L175 95L174 94M23 95L24 96L23 95z"/>
<path style="fill:#06b2e3; stroke:none;" d="M22 96L23 97L22 96z"/>
<path style="fill:#9acde9; stroke:none;" d="M177 96L178 97L177 96M20 97L21 98L20 97M179 97L180 98L179 97M18 98L19 99L18 98M16.3333 99.6667C16.2778 99.7223 16.2222 100.778 16.6667 100.333C16.7222 100.278 16.7778 99.2222 16.3333 99.6667M182 99L182 101L184 101L184 99L182 99M18 101L19 102L18 101z"/>
<path style="fill:#06b2e3; stroke:none;" d="M20 102L21 103L20 102z"/>
<path style="fill:#9acde9; stroke:none;" d="M21 103L22 104L21 103M23 104L24 105L23 104M25 105L26 106L25 105M174 105L175 106L174 105z"/>
<path style="fill:#06b2e3; stroke:none;" d="M27 106L28 107L27 106z"/>
<path style="fill:#9acde9; stroke:none;" d="M172 106L173 107L172 106M28 107L29 108L28 107M30 108L31 109L30 108M169 108L170 109L169 108M167 109L168 110L167 109M33 110L34 111L33 110M35 111L36 112L35 111M37 112L38 113L37 112M162 112L163 113L162 112M38 113L39 114L38 113z"/>
<path style="fill:#06b2e3; stroke:none;" d="M39 113L40 114L39 113z"/>
<path style="fill:#9acde9; stroke:none;" d="M40 114L41 115L40 114M159 114L160 115L159 114M42 115L43 116L42 115M157 115L158 116L157 115z"/>
<path style="fill:#06b2e3; stroke:none;" d="M44 116L45 117L44 116z"/>
<path style="fill:#9acde9; stroke:none;" d="M155 116L156 117L155 116M45 117L46 118L45 117M153 117L154 118L153 117M47 118L48 119L47 118z"/>
<path style="fill:#06b2e3; stroke:none;" d="M49 119L50 120L49 119z"/>
<path style="fill:#9acde9; stroke:none;" d="M150 119L151 120L150 119M50 120L51 121L50 120M52 121L53 122L52 121M54 122L55 123L54 122M145 122L146 123L145 122z"/>
<path style="fill:#06b2e3; stroke:none;" d="M56 123L57 124L56 123z"/>
<path style="fill:#9acde9; stroke:none;" d="M143 123L144 124L143 123M59 125L60 126L59 125M61 126L62 127L61 126M62 127L63 128L62 127M136 127L137 128L136 127M64 128L65 129L64 128M135 128L136 129L135 128M66 129L67 130L66 129M133 129L134 130L133 129M131 130L132 131L131 130M69 131L70 132L69 131M71 132L72 133L71 132M73 133L74 134L73 133M126 133L127 134L126 133M74 134L75 135L74 134M76 135L77 136L76 135M78 136L79 137L78 136M121 136L122 137L121 136M119 137L120 138L119 137M81 138L82 139L81 138M83 139L84 140L83 139M116 139L117 140L116 139M85 140L86 141L85 140M114 140L115 141L114 140M86 141L87 142L86 141M88 142L89 143L88 142M111 142L112 143L111 142M90 143L91 144L90 143M91 144L92 145L91 144M107 144L108 145L107 144M93 145L94 146L93 145M95 146L96 147L95 146z"/>
<path style="fill:#06b2e3; stroke:none;" d="M97 147L98 148L97 147z"/>
<path style="fill:#9acde9; stroke:none;" d="M102 147L103 148L102 147M98 148L99 149L98 148z"/>
</svg>
